<svg version="1.1"
     baseProfile="full"
     width="600" height="200"
     xmlns="http://www.w3.org/2000/svg">

  <xrect width="100%" height="100%" fill="red" />

  <line x1="0" y1="100" x2="30" y2="100" stroke="black" />
  <line x1="30" y1="100" x2="80" y2="100" stroke="black" />
  <line x1="80" y1="100" x2="130" y2="150" stroke="black" />
  <line x1="130" y1="150" x2="230" y2="150" stroke="black" />
  <line x1="230" y1="150" x2="330" y2="150" stroke="black" />
  <line x1="330" y1="150" x2="430" y2="120" stroke="black" />
  <line x1="430" y1="120" x2="450" y2="80" stroke="black" />
  <line x1="450" y1="80" x2="500" y2="80" stroke="black" />
  <line x1="500" y1="80" x2="550" y2="100" stroke="black" />
  <line x1="550" y1="100" x2="600" y2="100" stroke="black" />
  <circle cx="30" cy="100" r="10" stroke="black" fill="white" />
  <circle cx="80" cy="100" r="10" stroke="black" fill="white" />
  <circle cx="130" cy="150" r="10" stroke="black" fill="white" />
  <circle cx="230" cy="150" r="10" stroke="black" fill="white" />
  <circle cx="330" cy="150" r="10" stroke="black" fill="white" />
  <circle cx="430" cy="120" r="10" stroke="black" fill="white" />
  <circle cx="450" cy="80" r="10" stroke="black" fill="white" />
  <circle cx="500" cy="80" r="10" stroke="black" fill="white" />
  <circle cx="550" cy="100" r="10" stroke="black" fill="white" />

  <polygon points="21 100 18 97 18 103" stroke="black" fill="black" />
  <polygon points="71 100 68 97 68 103" stroke="black" fill="black" />
  <polygon points="121 150 118 147 118 153" stroke="black" fill="black" transform="rotate(45,130,150)" />
  <polygon points="221 150 218 147 218 153" stroke="black" fill="black" />
  <polygon points="321 150 318 147 318 153" stroke="black" fill="black" />
  <polygon points="423 150 420 147 420 153" stroke="black" fill="black" transform="rotate(-16.5,330,150)" />
  <polygon points="441 80 438 77 438 83" stroke="black" fill="black" transform="rotate(-60,450,80)" />
  <polygon points="491 80 488 77 488 83" stroke="black" fill="black" />
  <polygon points="541 100 538 97 538 103" stroke="black" fill="black" transform="rotate(17,550,100)" />

  <line x1="550" y1="180" x2="580" y2="180" stroke="black" />
  <polygon points="580 180 578 177 578 183" stroke="black" fill="black" />
  <line x1="550" y1="180" x2="550" y2="150" stroke="black" />
  <polygon points="550 150 547 153 553 153" stroke="black" fill="black" />
  <text x="580" y="195" font-size="12" text-anchor="middle" fill="black" stroke="black">time</text>
  <text x="550" y="140" font-size="12" text-anchor="middle" fill="black" stroke="black">distance</text>

</svg>