<svg version="1.1"
     baseProfile="full"
     width="600" height="200"
     xmlns="http://www.w3.org/2000/svg">

  <rect width="100%" height="100%" fill="white" />

  
  <line x1="55" y1="100" x2="230" y2="150" stroke="black" />
  <line x1="230" y1="150" x2="400" y2="120" stroke="black" />
  <line x1="400" y1="120" x2="475" y2="80" stroke="black" />
  <line x1="475" y1="80" x2="550" y2="100" stroke="black" />

  <line x1="0" y1="100" x2="105" y2="100" stroke="blue" />
  <circle cx="55" cy="100" r="10" stroke="black" fill="white" />
  <line x1="105" y1="150" x2="380" y2="150" stroke="blue" />
  <circle cx="230" cy="150" r="10" stroke="black" fill="white" />
  <line x1="380" y1="120" x2="440" y2="120" stroke="blue" />
  <circle cx="400" cy="120" r="10" stroke="black" fill="white" />
  <line x1="440" y1="80" x2="525" y2="80" stroke="blue" />
  <circle cx="475" cy="80" r="10" stroke="black" fill="white" />
  <line x1="525" y1="100" x2="600" y2="100" stroke="blue" />
  <circle cx="550" cy="100" r="10" stroke="black" fill="white" />

  <polygon points="221 150 218 147 218 153" stroke="black" fill="black"  transform="rotate(20,230,150)" />
  <polygon points="390 120 387 117 387 123" stroke="black" fill="black" transform="rotate(-16.5,400,120)" />
  <polygon points="475 120 472 117 472 123" stroke="black" fill="black" transform="rotate(-27.5,400,120)" />
  <polygon points="541 100 538 97 538 103" stroke="black" fill="black" transform="rotate(17,550,100)" />

  <line x1="550" y1="180" x2="580" y2="180" stroke="black" />
  <polygon points="580 180 578 177 578 183" stroke="black" fill="black" />
  <line x1="550" y1="180" x2="550" y2="150" stroke="black" />
  <polygon points="550 150 547 153 553 153" stroke="black" fill="black" />
  <text x="580" y="195" font-size="12" text-anchor="middle" fill="black" stroke="black">time</text>
  <text x="550" y="140" font-size="12" text-anchor="middle" fill="black" stroke="black">distance</text>

</svg>