<svg version="1.1"
     baseProfile="full"
     width="600" height="400"
     xmlns="http://www.w3.org/2000/svg">
  <rect width="100%" height="100%" fill="white" />
  
  <line x1="55" y1="100" x2="230" y2="150" stroke="black" />
  <line x1="230" y1="150" x2="400" y2="120" stroke="black" />
  <line x1="400" y1="120" x2="475" y2="80" stroke="black" />
  <line x1="475" y1="80" x2="550" y2="100" stroke="black" />

  <line x1="230" y1="150" x2="210" y2="170" stroke="red" stroke-width="6px" />

  <circle cx="55" cy="100" r="10" stroke="black" fill="white" />
  <circle cx="230" cy="150" r="10" stroke="black" fill="white" />
  <circle cx="400" cy="120" r="10" stroke="black" fill="white" />
  <circle cx="475" cy="80" r="10" stroke="black" fill="white" />
  <circle cx="550" cy="100" r="10" stroke="black" fill="white" />


  <line x1="25" y1="250" x2="210" y2="170" stroke="black" />
  <line x1="210" y1="170" x2="400" y2="280" stroke="black" />
  <line x1="400" y1="280" x2="550" y2="200" stroke="black" />

  <line x1="400" y1="280" x2="410" y2="310" stroke="red" stroke-width="6px" />

  <circle cx="25" cy="250" r="10" stroke="black" fill="white" />
  <circle cx="210" cy="170" r="10" stroke="black" fill="white" />
  <circle cx="400" cy="280" r="10" stroke="black" fill="white" />
  <circle cx="550" cy="200" r="10" stroke="black" fill="white" />  


  <line x1="80" y1="350" x2="410" y2="310" stroke="black" />
  <line x1="410" y1="310" x2="550" y2="300" stroke="black" />

  <circle cx="80" cy="350" r="10" stroke="black" fill="white" />
  <circle cx="410" cy="310" r="10" stroke="black" fill="white" />
  <circle cx="550" cy="300" r="10" stroke="black" fill="white" />  
</svg>